<svg class="signalsicon-svg" width="25" height="25" viewBox="0 0 40 40" fill="none" xmlns="http://www.w3.org/2000/svg">
    <path
        d="M29.1801 18.902C30.1241 19.848 30.9401 20.992 31.5641 22.208C31.7452 22.5623 31.7782 22.9741 31.6557 23.3527C31.5332 23.7314 31.2654 24.0459 30.9111 24.227C30.5567 24.4081 30.145 24.4411 29.7663 24.3186C29.3877 24.1962 29.0732 23.9283 28.8921 23.574C28.4154 22.6348 27.7968 21.7747 27.0581 21.024C25.9537 19.9196 24.6034 19.0926 23.1178 18.6107C21.6322 18.1289 20.0536 18.0058 18.5113 18.2517C16.9689 18.4976 15.5068 19.1053 14.2447 20.0252C12.9825 20.9451 11.9563 22.151 11.2501 23.544C11.1612 23.7198 11.0385 23.8764 10.8891 24.0049C10.7396 24.1333 10.5664 24.2311 10.3792 24.2925C10.192 24.354 9.99449 24.378 9.79801 24.3631C9.60153 24.3483 9.4099 24.2949 9.23406 24.206C9.05822 24.1171 8.90161 23.9944 8.77318 23.845C8.64475 23.6956 8.54701 23.5223 8.48553 23.3351C8.42406 23.1479 8.40006 22.9504 8.41491 22.7539C8.42976 22.5575 8.48316 22.3658 8.57206 22.19C9.49219 20.3735 10.8297 18.8009 12.4749 17.6012C14.1202 16.4014 16.0263 15.6087 18.0371 15.2878C20.0479 14.967 22.1061 15.1273 24.043 15.7555C25.9799 16.3837 27.7404 17.462 29.1801 18.902V18.902ZM25.9101 23.682C26.6361 24.408 27.2321 25.298 27.6501 26.246C27.8097 26.6107 27.818 27.0238 27.673 27.3946C27.528 27.7653 27.2417 28.0633 26.8771 28.223C26.5124 28.3827 26.0992 28.3909 25.7285 28.2459C25.3577 28.101 25.0597 27.8147 24.9001 27.45C24.6335 26.8372 24.2565 26.2786 23.7881 25.802C23.2996 25.3134 22.7197 24.9258 22.0814 24.6613C21.4431 24.3969 20.759 24.2608 20.0681 24.2608C19.3772 24.2608 18.693 24.3969 18.0547 24.6613C17.4165 24.9258 16.8365 25.3134 16.3481 25.802C15.8852 26.2718 15.5142 26.8239 15.2541 27.43C15.1778 27.6144 15.0655 27.7817 14.9238 27.9222C14.7821 28.0627 14.6138 28.1734 14.4287 28.248C14.2436 28.3226 14.0455 28.3596 13.846 28.3567C13.6465 28.3538 13.4496 28.3111 13.2668 28.2311C13.0839 28.1511 12.9189 28.0355 12.7814 27.891C12.6438 27.7464 12.5364 27.5759 12.4656 27.3894C12.3948 27.2028 12.3618 27.004 12.3688 26.8046C12.3757 26.6052 12.4224 26.4092 12.5061 26.228C12.9221 25.274 13.5001 24.408 14.2261 23.682C14.9931 22.9146 15.9039 22.3058 16.9062 21.8905C17.9086 21.4752 18.983 21.2614 20.0681 21.2614C21.1531 21.2614 22.2275 21.4752 23.2299 21.8905C24.2323 22.3058 25.143 22.9146 25.9101 23.682ZM21.8421 27.762C22.3083 28.228 22.5704 28.8601 22.5705 29.5193C22.5707 30.1785 22.309 30.8107 21.8431 31.277C21.3771 31.7432 20.745 32.0053 20.0858 32.0055C19.4266 32.0057 18.7943 31.744 18.3281 31.278C17.8621 30.812 17.6003 30.18 17.6003 29.521C17.6003 28.862 17.8621 28.23 18.3281 27.764C18.794 27.298 19.4261 27.0362 20.0851 27.0362C20.7441 27.0362 21.3761 27.298 21.8421 27.764V27.762Z"
        fill="white" />
</svg>