<svg class="twittericon-svg" width="20" height="20" viewBox="0 0 30 30" fill="none" xmlns="http://www.w3.org/2000/svg">
    <path
        d="M27.1875 7.45019C26.291 7.83691 25.3154 8.11523 24.3105 8.22363C25.3538 7.60381 26.1351 6.62461 26.5078 5.46972C25.5288 6.05211 24.4563 6.4605 23.3379 6.67676C22.8704 6.17703 22.3051 5.77892 21.677 5.50725C21.049 5.23557 20.3717 5.09614 19.6875 5.09765C16.9189 5.09765 14.6924 7.3418 14.6924 10.0957C14.6924 10.4824 14.7392 10.8691 14.8154 11.2412C10.6699 11.0244 6.97263 9.04394 4.51462 6.01172C4.06674 6.7767 3.83204 7.64773 3.83493 8.53418C3.83493 10.2686 4.71677 11.7979 6.06149 12.6973C5.26903 12.6661 4.49511 12.4482 3.8027 12.0615V12.123C3.8027 14.5518 5.5195 16.5645 7.80759 17.0273C7.37797 17.1389 6.93603 17.196 6.49216 17.1973C6.16696 17.1973 5.85934 17.165 5.5488 17.1211C6.18161 19.1016 8.02438 20.54 10.2187 20.5869C8.50192 21.9317 6.35153 22.7227 4.01657 22.7227C3.59763 22.7227 3.21091 22.708 2.80954 22.6611C5.02438 24.082 7.65231 24.9024 10.4824 24.9024C19.6699 24.9024 24.6972 17.291 24.6972 10.6846C24.6972 10.4678 24.6972 10.251 24.6826 10.0342C25.6552 9.32227 26.5078 8.44043 27.1875 7.45019Z"
        fill="white" />
</svg>