<svg class="youtubeicon-svg" width="25" height="25" viewBox="0 0 40 40" fill="none" xmlns="http://www.w3.org/2000/svg">
    <path
        d="M18.076 28.1564C17.7976 28.55 17.534 28.744 17.282 28.744C17.114 28.744 17.0184 28.6456 16.988 28.4504C16.976 28.41 16.976 28.2568 16.976 27.9624V22.8584H15.7208V28.34C15.7208 28.83 15.7624 29.1604 15.8316 29.3704C15.9568 29.7216 16.236 29.886 16.6408 29.886C17.1024 29.886 17.5768 29.6072 18.0756 29.0344V29.7908H19.3328V22.8588H18.076V28.1564V28.1564Z"
        fill="white" />
    <path d="M11.1588 21.7968H12.6364V29.7908H14.0332V21.7968H15.538V20.4872H11.1588V21.7968Z" fill="white" />
    <path
        d="M19.7124 15.736C20.1216 15.736 20.3176 15.412 20.3176 14.7636V11.8164C20.3176 11.1688 20.1216 10.846 19.7124 10.846C19.3028 10.846 19.1064 11.1688 19.1064 11.8164V14.7636C19.1068 15.4116 19.3028 15.736 19.7124 15.736Z"
        fill="white" />
    <path
        d="M22.9736 22.774C22.512 22.774 22.0816 23.0268 21.6764 23.526V20.4872H20.42V29.7908H21.6764V29.118C22.0956 29.6376 22.5272 29.886 22.9736 29.886C23.474 29.886 23.81 29.6228 23.978 29.1072C24.0616 28.8132 24.1044 28.3516 24.1044 27.7104V24.95C24.1044 24.294 24.0616 23.8356 23.978 23.5568C23.8096 23.0372 23.474 22.774 22.9736 22.774ZM22.8484 27.8088C22.8484 28.4348 22.664 28.7436 22.302 28.7436C22.0956 28.7436 21.886 28.6452 21.676 28.4352V24.2096C21.886 24.0028 22.0952 23.9044 22.302 23.9044C22.6644 23.9044 22.8484 24.2252 22.8484 24.8504V27.8088Z"
        fill="white" />
    <path
        d="M26.974 22.774C26.3332 22.774 25.8324 23.0104 25.47 23.4852C25.2028 23.8352 25.0816 24.3768 25.0816 25.1172V27.546C25.0816 28.282 25.2184 28.8296 25.4852 29.1756C25.848 29.6488 26.348 29.8856 27.0056 29.8856C27.6616 29.8856 28.1764 29.6372 28.5244 29.1348C28.6778 28.9092 28.7781 28.6516 28.8176 28.3816C28.8288 28.2556 28.8444 27.9764 28.8444 27.5724V27.3884H27.5624C27.5624 27.8924 27.5468 28.1712 27.5352 28.2396C27.4636 28.5752 27.2828 28.7432 26.974 28.7432C26.5428 28.7432 26.3332 28.4232 26.3332 27.7816V26.5528H28.8448V25.1168C28.8448 24.376 28.7188 23.8348 28.456 23.4848C28.1044 23.01 27.6044 22.774 26.974 22.774V22.774ZM27.5888 25.5076H26.3332V24.8664C26.3332 24.2256 26.5428 23.9048 26.9628 23.9048C27.3784 23.9048 27.5888 24.2256 27.5888 24.8664V25.5076V25.5076Z"
        fill="white" />
    <path
        d="M31.6 5.60001H8.4C6.86 5.60001 5.6 6.86001 5.6 8.40001V31.6C5.6 33.14 6.86 34.4 8.4 34.4H31.6C33.14 34.4 34.4 33.14 34.4 31.6V8.40001C34.4 6.86001 33.14 5.60001 31.6 5.60001ZM22.632 9.78801H23.8972V14.9448C23.8972 15.2432 23.8972 15.398 23.9128 15.4388C23.9408 15.6356 24.04 15.736 24.2104 15.736C24.464 15.736 24.7308 15.5392 25.012 15.1416V9.78801H26.2816V16.792H25.012V16.028C24.5068 16.6076 24.0248 16.8892 23.562 16.8892C23.1532 16.8892 22.8712 16.7232 22.7444 16.368C22.6744 16.1564 22.632 15.8208 22.632 15.3264V9.78801V9.78801ZM17.8372 12.0712C17.8372 11.3228 17.9648 10.7752 18.2348 10.4212C18.586 9.94281 19.0804 9.70321 19.7124 9.70321C20.3484 9.70321 20.842 9.94281 21.1936 10.4212C21.4592 10.7752 21.5876 11.3228 21.5876 12.0712V14.5252C21.5876 15.2692 21.4596 15.8212 21.1936 16.1728C20.842 16.65 20.3488 16.8896 19.7124 16.8896C19.08 16.8896 18.5856 16.65 18.2348 16.1728C17.9648 15.8212 17.8372 15.2692 17.8372 14.5252V12.0712ZM14.4428 7.39281L15.4424 11.0836L16.402 7.39281H17.8252L16.1324 12.9856V16.792H14.7244V12.9856C14.5972 12.3104 14.3156 11.3224 13.8644 10.0116C13.5676 9.13961 13.2584 8.26361 12.962 7.39281H14.4428ZM30.0292 30.2072C29.7756 31.3124 28.8708 32.1276 27.7828 32.2488C25.2052 32.5368 22.5968 32.5384 20 32.5368C17.4028 32.5384 14.7944 32.5368 12.2172 32.2488C11.1288 32.1272 10.2256 31.312 9.9716 30.2072C9.6096 28.6328 9.6096 26.9144 9.6096 25.2944C9.6096 23.6728 9.6136 21.9556 9.976 20.3808C10.2296 19.276 11.1332 18.4612 12.2216 18.3396C14.7988 18.0508 17.4072 18.05 20.0044 18.0508C22.6012 18.05 25.2096 18.0508 27.7872 18.3396C28.8748 18.4612 29.7792 19.276 30.0332 20.3808C30.3952 21.956 30.3932 23.6728 30.3932 25.2944C30.3936 26.9144 30.3916 28.6328 30.0292 30.2072V30.2072Z"
        fill="white" />
</svg>